<?xml version="1.0" encoding="iso-8859-1"?>
<!-- Generator: Adobe Illustrator 19.0.0, SVG Export Plug-In . SVG Version: 6.00 Build 0)  -->
<svg version="1.1" id="Layer_1" xmlns="http://www.w3.org/2000/svg" xmlns:xlink="http://www.w3.org/1999/xlink" x="0px" y="0px"
	 viewBox="0 0 256 256" style="enable-background:new 0 0 256 256;" xml:space="preserve">
<path id="XMLID_163_" style="fill:#76262C;" d="M69.746,98.296c-4.912-6.849-9.958-13.747-16.467-18.873
	c-6.509-5.126-14.763-8.35-22.824-6.879C19.011,74.633,10.118,86.67,10.001,98.991c-0.117,12.321,7.878,23.851,18.601,28.338
	c10.723,4.487,23.525,2.239,33.132-4.799L69.746,98.296z"/>
<linearGradient id="XMLID_82_" gradientUnits="userSpaceOnUse" x1="-1363.2042" y1="81.9279" x2="-1368.4602" y2="119.4202" gradientTransform="matrix(-1 0 0 1 -1327.2584 0)">
	<stop  offset="0" style="stop-color:#76262C"/>
	<stop  offset="0.1785" style="stop-color:#7C2A2C"/>
	<stop  offset="0.4096" style="stop-color:#8C352C"/>
	<stop  offset="0.6697" style="stop-color:#A7482D"/>
	<stop  offset="0.9492" style="stop-color:#CB622E"/>
	<stop  offset="1" style="stop-color:#D3672E"/>
</linearGradient>
<path id="XMLID_162_" style="fill:url(#XMLID_82_);" d="M50.989,83.431c6.509,5.126,11.556,12.024,16.467,18.873l-6.97,21.085
	c-9.45,6.346-21.615,8.237-31.883,3.941c-10.723-4.487-18.718-16.016-18.601-28.338c0.038-4.069,1.05-8.097,2.778-11.756
	c3.713-5.462,9.166-9.548,15.386-10.683C36.225,75.081,44.48,78.305,50.989,83.431z"/>
<path id="XMLID_161_" style="fill:#FFC383;" d="M12.817,100.077c0.026-2.731,0.499-5.441,1.311-8.037
	c4.061-3.1,14.087-0.164,20.471,2.783c11.96,5.521,21.766,15.845,27.712,28.326l-0.052,0.159
	c-6.933,5.166-15.572,7.722-23.833,6.903c-2.553-0.341-5.064-0.995-7.466-2.017C20.501,123.742,12.703,112.302,12.817,100.077z"/>
<path id="XMLID_160_" style="fill:#FFD7AB;" d="M57.107,138.815c-7.249-5.706-15.81-9.735-24.828-11.685
	c3.66-1.251,7.549-1.826,11.414-1.688c-6.057-2.007-12.394-3.168-18.769-3.44c6.608-4.463,15.013-6.178,22.84-4.659
	c-0.883-3.813-3.762-7.103-7.424-8.483c10.319-0.663,20.778,5.15,25.662,14.264L57.107,138.815z"/>
<path id="XMLID_159_" style="opacity:0.31;fill:#F09B5E;" d="M45.38,148.61c0,0-8.938-2.513-14.243-6.796
	c1.153-0.586,2.244-1.247,3.297-1.953C35.942,141.771,38.736,144.587,45.38,148.61z"/>
<path id="XMLID_158_" style="fill:#932F30;" d="M87.453,200.233c2.601-11.49,29.18-14.733,40.012-22.26
	c18.591-12.919,50.101-6.932,50.101-6.932c0.827,0.827,24.559,24.078,31.968,41.278L87.453,200.233z"/>
<path id="XMLID_157_" style="fill:#C9764C;" d="M113.275,213.081c1.314-11.348,2.028-20.269,14.189-30.064
	c15.513-12.494,46.435-12.869,46.435-12.869c0.606,0.765,17.943,26.231,25.295,42.933H113.275z"/>
<path id="XMLID_156_" style="opacity:0.68;fill:#9A332F;" d="M118.285,192.79c1.041-2.424,12.436-3.839,13.758-5.845
	c11.148-4.607,30.5-10.947,44.002-15.015c1.7,3.467,9.167,9.542,13.158,18.509c-1.902,1.547-17.949,7.735-20.986,7.96
	C161.389,198.904,129.502,196.77,118.285,192.79z"/>
<path id="XMLID_155_" style="fill:#76262C;" d="M189.213,71.697c-0.569-8.766-1.099-17.825,1.881-26.088
	c2.98-8.264,10.448-15.578,19.232-15.506c3.984,0.032,7.845,1.56,11.184,3.733c10.269,6.685,15.744,19.995,13.15,31.971
	c-2.593,11.976-13.083,21.829-25.198,23.667L189.213,71.697z"/>
<linearGradient id="XMLID_83_" gradientUnits="userSpaceOnUse" x1="-1541.4807" y1="35.7971" x2="-1540.9697" y2="82.555" gradientTransform="matrix(-1 0 0 1 -1327.2584 0)">
	<stop  offset="0" style="stop-color:#76262C"/>
	<stop  offset="0.1785" style="stop-color:#7C2A2C"/>
	<stop  offset="0.4096" style="stop-color:#8C352C"/>
	<stop  offset="0.6697" style="stop-color:#A7482D"/>
	<stop  offset="0.9492" style="stop-color:#CB622E"/>
	<stop  offset="1" style="stop-color:#D3672E"/>
</linearGradient>
<path id="XMLID_154_" style="fill:url(#XMLID_83_);" d="M210.986,89.178L193.03,73.414c-0.569-8.766-1.099-17.825,1.881-26.088
	c2.98-8.264,10.448-15.578,19.232-15.506c1.946,0.016,3.862,0.393,5.704,1.023c0.566,0.314,1.123,0.641,1.663,0.992
	c10.269,6.685,15.744,19.995,13.15,31.971C232.177,77.276,222.446,86.778,210.986,89.178z"/>
<path id="XMLID_153_" style="fill:#FFC383;" d="M201.363,83.761c1.415-6.464,5.186-12.712,9.157-18.178
	c4.599-6.329,10.594-12.914,18.414-13.147c1.659-0.049,7.055,2.529,5.145,14.258c-1.97,12.094-13.083,21.829-25.198,23.667
	L201.363,83.761z"/>
<path id="XMLID_152_" style="fill:#FFD7AB;" d="M224.581,73.002c-3.345,0.028-6.658,1.434-9.002,3.82
	c5.856-1.033,12.116,0.479,16.856,4.069c-4.393-0.085-8.802,1.206-12.454,3.648c2.073,1.077,4.147,2.153,6.22,3.23
	c-1.504-0.781-6.545,2.031-7.883,2.761c-2.631,1.435-4.698,3.382-6.884,5.354c-1.871-4.977-9.466-13.725-7.579-19.222
	c0.478-1.392,1.693-3.333,1.683-3.385C210.659,70.703,220.5,72.081,224.581,73.002z"/>
<g id="XMLID_150_">
	<path id="XMLID_151_" style="fill:#9C3D39;" d="M117.624,30.972c-1.264,9.366,14.006,12.542,27.214,13.981
		c5.753,0.627,4.178,1.664,8.861,5.136c1.941,1.438,0.053,4.735-1.917,3.279c-8.561-6.329-19.195-5.671-28.432-10.285
		c-4.91-2.452-8.33-6.711-6.433-12.305C117.073,30.318,117.686,30.514,117.624,30.972z"/>
</g>
<path id="XMLID_149_" style="fill:#FF7233;" d="M208.801,136.896c-25.736,28.862-66.063,38.133-103.27,30.432
	c-24.518-5.075-47.007-15.837-68.472-28.515c9.579-7.867,14.814-20.673,18.924-32.731c4.89-14.346,10.075-29.925,22.562-38.517
	C84.641,63.371,92,61.249,97.958,56.86c5.958-4.389,10.359-12.565,6.977-19.147l8.716,9.051c-0.062-4.652-0.124-9.303-0.186-13.954
	c2.408,4.707,7.335,7.678,12.413,9.148c5.078,1.469,10.422,1.667,15.674,2.271c9.592,1.101,19.011,3.629,27.893,7.407
	c13.123,5.583,28.069,14.501,36.42,26.222c4.581,6.429,10.247,11.903,16.992,16.038c0.738,0.453,5.146,2.506,9.755,4.412
	C226.488,112.219,218.929,125.538,208.801,136.896z"/>
<path id="XMLID_148_" style="fill:#9C3D39;" d="M53.933,111.834c0.387,0.199,0.786,0.373,1.163,0.592
	c6.936,4.013,12.071,11.017,13.813,18.839c-5.587-4.567-12.29-7.666-19.336-9.205C51.209,118.75,52.636,115.299,53.933,111.834z"/>
<path id="XMLID_147_" style="fill:#FE802E;" d="M68.587,77.681c2.728-3.905,5.967-7.37,9.958-10.116
	C84.641,63.371,92,61.249,97.958,56.86c5.958-4.389,10.359-12.565,6.976-19.147l8.716,9.051c-0.062-4.652-0.124-9.303-0.185-13.954
	c2.408,4.706,7.335,7.678,12.413,9.148c5.078,1.469,10.421,1.667,15.674,2.271c9.592,1.101,19.011,3.629,27.893,7.407
	c7.862,3.345,16.37,7.896,23.73,13.52c-7.978,20.416-22.115,42.469-59.468,49.666C95.944,122.097,71.165,101.53,68.587,77.681z"/>
<path id="XMLID_146_" style="fill:#FFB980;" d="M139.347,147.528c-11.333-26.122-25.078-48.971-42.705-53.056
	c-16.648,2.185-33.686,8.631-27.926,32.422c7.006,28.937,35.938,40.085,35.938,40.085L139.347,147.528z"/>
<path id="XMLID_145_" style="fill:#FFB980;" d="M164.622,133.311c0,0-3.357-31.382,4.383-43.874
	c12.904-20.828,24.224-19.243,26.714-12.452c6.565,17.432,0.555,52.384,0.555,52.384L164.622,133.311z"/>
<g id="XMLID_142_">
	<path id="XMLID_144_" style="fill:#9C3D39;" d="M100.245,158.719c0.073,0.011,0.125,0.02,0.125,0.026
		C100.37,158.755,100.321,158.744,100.245,158.719z"/>
	<path id="XMLID_143_" style="fill:#9C3D39;" d="M45.429,129.308c4.377-0.327,17.302,1.949,27.672,10.45
		c6.617,5.423,16.101,14.048,17.513,14.506c-1.532-0.225-9.044,2.901-25.136-0.425c-9.717-4.452-19.164-9.559-28.42-15.025
		C40.311,136.143,43.053,132.894,45.429,129.308z"/>
</g>
<path id="XMLID_141_" style="fill:#9C3D39;" d="M195.367,110.611c0,0,9.126-15.868,26.402-17.425
	c0.364,0.235,0.719,0.482,1.09,0.709c1.06,0.65,9.686,4.601,15.612,6.678h0c-0.064,7.784-10.218,19.327-28.807,20.064
	L195.367,110.611z"/>
<path id="XMLID_140_" style="fill:#76262C;" d="M139.318,154.675c-10.827-24.905-22.78-47.868-48.579-49.304
	c-16.157-0.899-23.165,9.846-17.564,24.063c6.524,16.561,14.379,24.727,27.754,32.893l42.672,2.45L139.318,154.675z"/>
<path id="XMLID_139_" style="fill:#FFFFFF;" d="M139.245,153.452c-9.528-22.64-21.917-43.491-44.621-44.796
	c-14.218-0.817-20.385,8.951-15.457,21.875c5.742,15.055,12.654,22.478,24.425,29.901l37.553,2.227L139.245,153.452z"/>
<path id="XMLID_138_" style="fill:#76262C;" d="M169.863,140.555c-1.78-6.882-2.325-19.093-2.198-22.289
	c0.299-7.536,0.862-15.876,3.416-23.038c0.985-2.761,2.164-5.526,4.163-7.772c1.999-2.246,4.949-3.928,8.096-3.901
	c3.314,0.029,6.343,1.94,8.346,4.379c1.297,1.58,2.043,3.456,3.036,5.214c1.635,2.895,3.076,11.17,2.228,20.756L169.863,140.555z"/>
<path id="XMLID_137_" style="fill:#FFFFFF;" d="M194.889,114.43c1.895-8.484-1.192-27.556-12.889-25.083
	c-4.719,0.998-8.668,4.397-10.935,9.611c-5.335,12.27-5.857,30.489-1.335,42.225C176.555,158.888,194.889,114.43,194.889,114.43z"/>
<path id="XMLID_136_" style="fill:#AA0001;" d="M165.862,153.186c1.92-0.707,0.552,7.352-0.155,8.362
	c-0.707,1.01-2.323-1.549-7.664-4.591C154.565,154.976,165.862,153.186,165.862,153.186z"/>
<linearGradient id="XMLID_121_" gradientUnits="userSpaceOnUse" x1="-1471.2271" y1="185.4698" x2="-1446.983" y2="212.3927" gradientTransform="matrix(-1 0 0 1 -1327.2584 0)">
	<stop  offset="9.685800e-004" style="stop-color:#FE9128"/>
	<stop  offset="0.2578" style="stop-color:#FE8B2A"/>
	<stop  offset="0.5904" style="stop-color:#FE7B30"/>
	<stop  offset="0.9632" style="stop-color:#FF613A"/>
	<stop  offset="0.9949" style="stop-color:#FF5E3B"/>
</linearGradient>
<path id="XMLID_135_" style="fill:url(#XMLID_121_);" d="M89.237,196.462c2.568-3.288,6.294-5.632,13.325-8.456
	c11.195-0.904,10.957,10.396,10.667,14.108c6.054,2.82,25.178-2.057,31.662-1.467c5.447,0.495,11.726,5.066,14.239,10.628
	c0.168,0.371,0.987,5.494,0.708,6.329c-4.311,5.773-12.308,7.6-18.804,9.045c-4.1,0.912-8.174,1.235-12.226,1.706
	c-5.513-0.696-12.461-2.2-21.468-4.811c-4.43-1.285-8.954-2.505-12.856-4.967c-3.901-2.461-7.196-6.21-8.157-10.721
	C85.482,203.884,86.737,199.663,89.237,196.462z"/>
<g id="XMLID_133_" style="opacity:0.15;">
	<path id="XMLID_134_" style="fill:#9C3D39;" d="M103.469,187.584c12.31-0.958,9.602,14.377,9.893,14.468
		c-7.558-0.766-20.683-0.698-27.235,4.468c-0.371-3.586,0.821-7.266,3.11-10.058C93.341,191.456,100.277,189.016,103.469,187.584z"
		/>
</g>
<path id="XMLID_132_" style="fill:#9C3D39;" d="M89.237,196.462c0.901-1.049,2.019-1.993,3.271-2.851
	c5.715-0.05,12.589,3.261,17.377,8.049c-7.066-3.975-23.531-2.821-23.707,5.198c-0.009-0.068-0.023-0.135-0.03-0.203l-0.071-1.084
	C85.979,202.285,87.091,198.96,89.237,196.462z"/>
<path id="XMLID_131_" style="fill:#F9BD8A;" d="M243.935,101.253c0,0-0.737,13.586-2.633,18.746
	c-1.896,5.16-5.161,1.158-5.161,1.158l7.946-20.537L243.935,101.253z"/>
<linearGradient id="XMLID_123_" gradientUnits="userSpaceOnUse" x1="-1450.6405" y1="155.3269" x2="-1437.7573" y2="139.2946" gradientTransform="matrix(-1 0 0 1 -1327.2584 0)">
	<stop  offset="0" style="stop-color:#FDA80D"/>
	<stop  offset="0.9894" style="stop-color:#AE1702"/>
</linearGradient>
<circle id="XMLID_130_" style="fill:url(#XMLID_123_);" cx="116.043" cy="146.193" r="13.332"/>
<circle id="XMLID_129_" style="fill:#76262C;" cx="116.042" cy="146.193" r="9.356"/>
<ellipse id="XMLID_127_" style="fill:#FFFFFF;" cx="117.561" cy="135.531" rx="3.168" ry="4.375"/>
<linearGradient id="XMLID_126_" gradientUnits="userSpaceOnUse" x1="-1516.3849" y1="133.8824" x2="-1503.5017" y2="117.85" gradientTransform="matrix(-1 0 0 1 -1327.2584 0)">
	<stop  offset="0" style="stop-color:#FDA80D"/>
	<stop  offset="0.9894" style="stop-color:#AE1702"/>
</linearGradient>
<circle id="XMLID_125_" style="fill:url(#XMLID_126_);" cx="181.787" cy="124.749" r="13.332"/>
<circle id="XMLID_124_" style="fill:#76262C;" cx="181.787" cy="124.749" r="9.356"/>
<ellipse id="XMLID_122_" style="fill:#FFFFFF;" cx="182.963" cy="113.466" rx="3.168" ry="4.375"/>
<radialGradient id="XMLID_128_" cx="-1488.1608" cy="149.916" r="49.2928" gradientTransform="matrix(-0.9219 0 0 0.9219 -1213.0728 9.9249)" gradientUnits="userSpaceOnUse">
	<stop  offset="0" style="stop-color:#FFFFFF"/>
	<stop  offset="1" style="stop-color:#FFD6A8"/>
</radialGradient>
<path id="XMLID_120_" style="fill:url(#XMLID_128_);" d="M42.051,146.484c-3.364-2.712-4.966-5.662-5.788-7.961
	c2.04-1.577,3.908-3.351,5.593-5.318c1.967,0.047,3.927,0.255,5.832,0.619c9.907,1.896,18.764,7.216,27.487,12.28
	c8.724,5.064,17.97,9.257,27.868,11.199c28.221,5.538,44.428-3.478,61.264-9.681c10.991-4.05,16.503-22.808,26.471-32.502
	c9.117-8.866,21.579-17.461,35.021-19.775c3.246,1.516,8.834,3.619,12.986,4.778c0.149,1.876,0.058,4.419-0.954,6.914
	c3.275-2.183,5.243-4.72,6.205-6.193c-1.168,5.209-2.335,10.419-3.503,15.628c1.822-1.692,3.644-3.384,5.465-5.076
	c-7.732,28.87-28.134,53.913-54.394,68.183c-26.26,14.27-57.966,17.813-86.981,10.645c-29.015-7.168-55.164-24.8-73.488-48.411
	c0.967-0.492,1.888-1.038,2.784-1.614C35.974,142.426,38.653,144.672,42.051,146.484z"/>
<path id="XMLID_119_" style="fill:#FFE3C5;" d="M95.004,157.913c-17.945-6.184-25.207-14.564-38.152-21.357
	c6.364,2.525,12.375,6.095,18.324,9.548c8.724,5.064,17.97,9.257,27.868,11.199c13.814,2.711,24.746,1.93,34.285-0.296
	c0.702,0.204,16.744-0.036,16.744-0.036C149.511,160.357,116.786,165.419,95.004,157.913z"/>
<path id="XMLID_118_" style="fill:#F9BD8A;" d="M173.548,177.103c16.809-29.769,36.127-39.817,45.612-44.631
	c6.019-3.054,12.46-7.972,18.736-15.432c4.23-5.028,4.593-10.627,5.478-13.236c-0.946,4.223-1.893,8.446-2.839,12.669
	c0.088-0.082,0.176-0.164,0.264-0.245c-0.088,0.393-0.176,0.786-0.264,1.179c1.694-1.573,3.388-3.147,5.082-4.72
	c-7.989,28.321-28.145,52.838-54.011,66.893c-26.26,14.27-57.966,17.813-86.981,10.645c-24.125-5.96-46.251-19.17-63.562-37.02
	C66.102,175.325,121.738,196.482,173.548,177.103z"/>
<path id="XMLID_117_" style="fill:#FCCA9A;" d="M219.482,131.47c-6.441,3.268-22.479,6.205-34.036,19.251
	c-0.709,3.256-2.349,6.445-4.068,9.18c-0.244,0.388-0.5,0.756-0.761,1.117c-0.154,0.227-0.287,0.472-0.448,0.693
	c-0.931,1.273-2.16,2.752-3.571,3.873c-1.292,3.439-2.339,7.249-3.05,11.518c-22.151,8.286-44.994,9.146-65.853,5.705
	c16.982,4.897,36.584,7.19,56.782,3.446c35.551-6.59,54.373-33.279,65.875-61.741C226.685,127.508,223.065,129.652,219.482,131.47z"
	/>
<path id="XMLID_116_" style="fill:#76262C;" d="M158.927,173.091c0.189,0.014,1.394,0.107,1.593,0.107
	c0.177,0,0.356-0.005,0.538-0.015c0.864-0.052,1.853-0.217,2.644-0.593c0.787-0.4,1.414-1.108,1.802-2.098l0.001-0.002
	c0.199-0.49,0.339-1.046,0.44-1.634l0.001-0.006c0.028-0.136,0.046-0.287,0.068-0.443l0.05-0.39l0.042-0.497
	c0.052-0.669,0.105-1.344,0.158-2.025l0.097-0.144l0.166,0.022c0.609,0.502,1.235,0.977,1.88,1.406l0.008,0.006
	c0.194,0.14,0.139,0.088,0.261,0.138v0l0.215,0.079l0.013,0.005c0.098,0.049,0.25,0.063,0.417,0.104l0,0
	c0.307,0.06,0.631,0.088,0.964,0.088c0.319,0,0.647-0.026,0.978-0.074c1.365-0.228,2.694-0.775,3.83-1.507l0.003-0.002
	c1.157-0.705,1.975-1.669,2.793-2.771c1.592-2.185,2.882-4.333,3.948-6.134c1.057-1.779,1.852-3.254,2.411-4.288
	c0.279-0.517,0.499-0.923,0.666-1.204c0.084-0.141,0.154-0.25,0.215-0.332l0.094-0.105l0.156-0.067l0.057,0.01l0-0.001l0.001,0.001
	l0.005,0.001l-0.001,0.003l0.135,0.148l0.019,0.151c-0.004,0.357-0.199,1.103-0.601,2.219c-0.403,1.11-1.017,2.564-1.863,4.248
	c-0.958,1.917-2.159,4.164-3.772,6.529c-0.792,1.158-1.863,2.475-3.244,3.339v0l-0.002,0.002l-0.001,0.001l0,0
	c-1.339,0.887-2.87,1.542-4.56,1.825l-0.003,0.001c-0.406,0.059-0.819,0.093-1.236,0.093c-0.452,0-0.907-0.04-1.361-0.133
	l-0.007-0.002c-0.197-0.051-0.418-0.077-0.649-0.175l0,0l-0.403-0.155c-0.022,0.138-0.042,0.277-0.074,0.421l0,0
	c0,0.001-0.001,0.003-0.001,0.003l-0.001,0.002h0c-0.134,0.691-0.321,1.379-0.606,2.035l0,0l-0.001,0.002l-0.001,0.002l0,0
	c-0.549,1.333-1.594,2.464-2.799,2.983c-1.206,0.494-2.293,0.573-3.31,0.578c-0.892-0.009-1.708-0.15-2.453-0.357
	C159.091,174.052,158.503,173.556,158.927,173.091z"/>
<path id="XMLID_115_" style="fill:#9C3D39;" d="M163.33,49.272c-0.833,5.402-1.945,10.761-3.353,16.042
	c-1.248,4.682-3.57,10.089-8.351,10.872c1.263-10.292,0.357-20.826-2.523-30.786C153.931,46.339,158.689,47.639,163.33,49.272z"/>
<path id="XMLID_114_" style="fill:#9C3D39;" d="M104.06,49.918c2.145-3.888,2.871-8.322,0.875-12.205
	c2.905,3.017,5.811,6.034,8.716,9.051c-0.062-4.652-1.324-10.87,0.285-15.95c0.508,6.096,6.864,9.674,11.943,11.143
	c2.204,0.638,4.46,1.03,6.735,1.325c0.795,3.448,2.403,7.596,3.559,15.046c0.659,4.248,4.543,32.5,0.296,33.159
	C130.894,74.579,118.899,60.19,104.06,49.918z"/>
<path id="XMLID_113_" style="fill:#9C3D39;" d="M78.545,67.566c5.376-3.699,11.731-5.79,17.244-9.242
	c6.679,4.821,12.456,10.896,16.84,17.871c2.104,3.346,3.947,7.394,2.685,11.139c-11.015-9.933-25.443-15.915-40.217-17.031
	C76.187,69.334,77.322,68.408,78.545,67.566z"/>
<path id="XMLID_112_" style="fill:#FE9E2E;" d="M179.425,137.372c0,0-3.863-3.521-11.684-8.196
	c-3.878-2.318-30.215,6.328-31.459,10.309c-1.662,5.317-2.097,12.619-1.749,13.971c0,0,14.396,2.831,29.583,1.52
	C176.269,149.054,179.425,137.372,179.425,137.372z"/>
<path id="XMLID_111_" style="fill:#FFB877;" d="M164.013,130.291c-4.532,0.503-20.095,4.317-27.935,9.893
	c0.067-0.235,0.133-0.471,0.204-0.699c1.244-3.981,27.387-12.266,31.459-10.309c8.471,4.071,11.684,8.196,11.684,8.196
	s-3.463,3.892-4.601,6.174C173.319,140.125,167.824,129.867,164.013,130.291z"/>
<linearGradient id="XMLID_176_" gradientUnits="userSpaceOnUse" x1="-1544.1349" y1="135.5436" x2="-1515.5952" y2="212.4167" gradientTransform="matrix(-1 0 0 1 -1327.2584 0)">
	<stop  offset="9.685800e-004" style="stop-color:#FE9128"/>
	<stop  offset="0.2578" style="stop-color:#FE8B2A"/>
	<stop  offset="0.5904" style="stop-color:#FE7B30"/>
	<stop  offset="0.9632" style="stop-color:#FF613A"/>
	<stop  offset="0.9949" style="stop-color:#FF5E3B"/>
</linearGradient>
<path id="XMLID_110_" style="fill:url(#XMLID_176_);" d="M175.347,179.912c1.908-8.585,6.678-20.631,10.4-24.067
	c8.336-7.696,23.525-7.023,26.63-5.448c3.976,2.017,7.869,10.899,7.666,15.297c-0.24,5.202-9.117,9.224-16.344,14.179
	c10.35,11.049,13.624,25.192,10.005,33.662c-2.666,6.239-10.195,7.732-16.87,6.516c-6.675-1.217-12.481-5.762-16.134-11.48
	C175.031,199.698,174.728,182.699,175.347,179.912z"/>
<linearGradient id="XMLID_177_" gradientUnits="userSpaceOnUse" x1="-1529.129" y1="150.9942" x2="-1540.0471" y2="207.2973" gradientTransform="matrix(-1 0 0 1 -1327.2584 0)">
	<stop  offset="0.0052" style="stop-color:#FE9D40"/>
	<stop  offset="0.2297" style="stop-color:#FE9740"/>
	<stop  offset="0.5204" style="stop-color:#FE873E"/>
	<stop  offset="0.8462" style="stop-color:#FF6D3C"/>
	<stop  offset="0.9949" style="stop-color:#FF5E3B"/>
</linearGradient>
<path id="XMLID_109_" style="fill:url(#XMLID_177_);" d="M193.477,162.016c-1.196-3.146-3.577-5.617-6.453-7.191
	c8.521-6.574,22.398-5.927,25.353-4.428c3.976,2.017,7.869,10.899,7.666,15.297c-0.133,2.883-2.922,5.403-6.609,7.92
	c-2.158,0.352-4.361,0.529-6.533,0.622c-3.347,0.144-6.848,0.099-9.831-1.427c-1.078-0.552-2.027-1.266-2.872-2.095
	C194.672,167.739,194.522,164.763,193.477,162.016z"/>
<path id="XMLID_108_" style="fill:#9C3D39;" d="M209.436,82.41c1.985,2.305,4.135,4.451,6.447,6.417
	c-3.086,0.326-11.965,3.943-17.125,11.818C199.469,92.707,202.996,86.016,209.436,82.41z"/>
<path id="XMLID_107_" style="fill:#76262C;" d="M135.247,151.432c10.343,0.916,34.251-5.685,43.448-14.178
	c1.706-1.575,1.327,6.763,1.327,6.763s-6.613,5.169-11.676,9.615c-1.071,1.341-1.897,2.86-1.297,3.916
	c0.488,0.858-3.892,3.999-4.989,2.588c-1.752-2.252-6.698-2.433-12.718-2.437c-6.967,0.192-13.33,0.709-13.33,0.709
	S133.04,151.237,135.247,151.432z"/>
<path id="XMLID_106_" style="opacity:0.16;fill:#FFFFFF;" d="M135.247,151.432c4.215,0.373,10.683-0.503,17.49-2.245
	c2.547,2.698,7.093,7.203,12.069,10.701c-1.085,0.591-2.25,0.886-2.746,0.248c-1.752-2.252-6.698-2.433-12.718-2.437
	c-6.967,0.192-13.33,0.709-13.33,0.709S133.04,151.237,135.247,151.432z"/>
<path id="XMLID_103_" style="fill:#602229;" d="M136.013,158.407c0,0,6.363-0.517,13.329-0.709
	c6.02,0.004,10.966,0.185,12.718,2.437c0.196,0.253,0.498,0.36,0.858,0.36c1.651,0,4.531-2.243,4.13-2.947
	c-0.601-1.056,0.225-2.575,1.297-3.916c5.063-4.446,11.676-9.615,11.676-9.615s0.317-6.962-0.93-6.961
	c-0.118,0-0.25,0.062-0.397,0.198c-8.625,7.964-30.181,14.263-41.362,14.263c-0.743,0-1.442-0.028-2.086-0.085l-0.086-0.004
	C133.121,151.428,136.013,158.407,136.013,158.407z M135.459,152.488c0.581,0.043,1.211,0.065,1.874,0.065
	c11.577,0,32.595-6.404,41.461-14.001c0.185,1.035,0.275,2.984,0.211,4.947c-1.481,1.166-7.007,5.548-11.343,9.356l-0.126,0.132
	c-1.505,1.883-2.028,3.465-1.56,4.708c-0.465,0.599-2.146,1.766-3.058,1.766l-0.077-0.005c-2.062-2.578-7.115-2.788-13.499-2.792
	c-5.544,0.152-10.746,0.512-12.65,0.654C135.921,155.301,135.407,153.287,135.459,152.488z"/>
<g id="XMLID_101_">
	<path id="XMLID_102_" style="fill:#FEFEFE;" d="M173.16,142.327c-2.187,1.124-4.038,1.964-3.952,2.334
		c0.072,0.332,2.106,0.051,4.417-1.134c2.337-1.137,3.821-3.002,3.538-3.278C176.957,140.043,175.378,141.241,173.16,142.327z"/>
</g>
<path id="XMLID_100_" style="opacity:0.27;fill:#FFFFFF;" d="M225.8,95.346c3.336,1.557,9.147,3.736,13.328,4.872l-0.106,0.459
	c-3.011-1.549-23.531-6.679-47.93,14.146C200.182,106.063,212.508,97.634,225.8,95.346z"/>
<path id="XMLID_99_" style="fill:#D85836;" d="M220.026,164.739c0.023,0.336,0.031,0.657,0.017,0.955
	c-0.236,5.124-8.847,9.104-16.012,13.957c-13.17-3.642-22.213,5.853-18.189-1.859C190.625,168.625,209.209,163.259,220.026,164.739z
	"/>
<path id="XMLID_98_" style="fill:#9C3D39;" d="M189.25,197.696c9.452-1.085,15.916-6.404,19.301-11.667
	c2.167,3.285,3.789,6.682,4.882,10.016C209.644,199.754,200.476,202.748,189.25,197.696z"/>
<path id="XMLID_97_" style="fill:#9C3D39;" d="M196.833,220.051c-4.62-0.843-8.803-3.301-12.165-6.617
	c7.141,4.348,16.527,4.695,21.191,3.676c4.243-0.927,6.793-3.172,8.45-5.263c-0.175,0.584-0.376,1.148-0.606,1.688
	C211.038,219.775,203.508,221.268,196.833,220.051z"/>
<path id="XMLID_96_" style="fill:#9C3D39;" d="M94.484,218.578c-0.644-0.406-1.261-0.859-1.864-1.333
	c1.513-6.626,8.368-14.07,21.511-14.82c0.652,0.198,1.389,0.344,2.22,0.434c-9.269,2.536-17.78,11.202-16.509,18.314
	C97.979,220.467,96.172,219.642,94.484,218.578z"/>
<linearGradient id="XMLID_178_" gradientUnits="userSpaceOnUse" x1="-1457.8065" y1="205.0311" x2="-1448.6644" y2="197.5215" gradientTransform="matrix(-1 0 0 1 -1327.2584 0)">
	<stop  offset="0.0052" style="stop-color:#FE9D40"/>
	<stop  offset="0.2297" style="stop-color:#FE9740"/>
	<stop  offset="0.5204" style="stop-color:#FE873E"/>
	<stop  offset="0.8462" style="stop-color:#FF6D3C"/>
	<stop  offset="0.9949" style="stop-color:#FF5E3B"/>
</linearGradient>
<path id="XMLID_95_" style="fill:url(#XMLID_178_);" d="M124.376,212.62c-19.553-1.638-10.187-10.068,20.516-11.973
	c1.621-0.101,3.386,1.029,5.138,2.328C141.258,204.01,132.648,207.698,124.376,212.62z"/>
<g id="XMLID_93_">
	<path id="XMLID_94_" style="fill:#9C3D39;" d="M118.687,46.946c-1.122,0.192-2.242,0.397-3.358,0.623
		c-0.482,0.074-0.962,0.165-1.444,0.248c-2.435-6.36-2.104-14.02,0.432-20.172l0.17,0.023
		C113.893,33.548,115.165,41.241,118.687,46.946z"/>
</g>
<path id="XMLID_92_" style="opacity:0.15;fill:#9C3D39;" d="M180.7,208.571c-5.927-8.941-5.972-25.872-5.353-28.659
	c0.057-0.257,0.125-0.527,0.187-0.79c2.147,27.207,14.2,33.054,20.966,35.591c4.472,1.677,12.729,2.748,17.297-1.436
	c-0.034,0.083-0.058,0.175-0.093,0.257c-2.666,6.239-10.195,7.732-16.87,6.516C190.158,218.834,184.449,214.226,180.7,208.571z"/>
<path id="XMLID_91_" style="fill:#9C3D39;" d="M96.849,88.108c3.153,0.974,11.125,4.792,12.445,9.271
	c-12.855-0.857-31.743,3.355-31.625,3.204C81.424,95.754,95.03,87.914,96.849,88.108z"/>
<path id="XMLID_90_" style="fill:#9C3D39;" d="M149.54,222.734c2.998-0.833,9.419-4.362,10.299-5.13
	c-4.311,5.773-12.308,7.6-18.804,9.045c-4.1,0.912-8.174,1.235-12.226,1.706c-2.913-0.368-6.228-0.962-10.036-1.826
	C121.89,226.398,129.647,227.82,149.54,222.734z"/>
<path id="XMLID_89_" style="fill:#9C3D39;" d="M140.126,209.053c0,0,5.473,3.39,6.223,6.044c0.18,2.732-0.49,6.308-0.49,6.308
	s-1.25-4.559-1.616-6.051C143.528,213.894,140.126,209.053,140.126,209.053z"/>
<path id="XMLID_88_" style="fill:#9C3D39;" d="M131.36,213.842c0,0,2.446,2.906,3.133,4.177c0.32,1.905,0.401,5.542,0.401,5.542
	l-2.49-4.739L131.36,213.842z"/>
<path id="XMLID_87_" style="fill:#9C3D39;" d="M146.025,205.78c0,0,4.94,4.983,5.99,6.865c1.227,2.2,3.472,6.482,3.472,6.482
	s-0.887-6.291-2.001-8.663C152.802,209.007,146.025,205.78,146.025,205.78z"/>
<path id="XMLID_86_" style="fill:#9C3D39;" d="M213.134,168.441c0,0,2.998-5.164,2.665-6.329c-0.333-1.166-5.33-8.495-5.33-8.495
	s2.499,7.662,2.665,9.494C213.3,164.943,213.134,168.441,213.134,168.441z"/>
<path id="XMLID_85_" style="fill:#9C3D39;" d="M202.761,169.715c0.178-0.83,0.83-6.049,0.593-7.59
	c-0.177-1.152-3.024-6.938-3.202-7.294C199.973,154.475,202.583,170.546,202.761,169.715z"/>
<path id="XMLID_84_" style="fill:#9C3D39;" d="M178.46,73.874c-2.713,3.177-10.385,12.641-14.111,22.191
	c-3.697-4.364-5.501-10.367-5.307-14.693c4.361-0.636,15.278-6.02,19.071-7.941C178.391,73.291,178.663,73.637,178.46,73.874z"/>
<path id="XMLID_81_" style="fill:#76262C;" d="M162.923,173.179c-1.446-0.024-4.482,0.474-10.007-2.751
	c-0.427,0.972,4.671,4.197,8.323,4.292C163.563,174.531,162.923,173.179,162.923,173.179z"/>
</svg>
